<?xml version="1.0" standalone="no"?>
<!DOCTYPE svg PUBLIC "-//W3C//DTD SVG 20010904//EN"
 "http://www.w3.org/TR/2001/REC-SVG-20010904/DTD/svg10.dtd">
<svg version="1.0" xmlns="http://www.w3.org/2000/svg"
 width="1008.000000pt" height="1008.000000pt" viewBox="0 0 1008.000000 1008.000000"
 preserveAspectRatio="xMidYMid meet">
<metadata>
Created by potrace 1.11, written by Peter Selinger 2001-2013
</metadata>
<g transform="translate(0.000000,1008.000000) scale(0.100000,-0.100000)"
fill="#000000" stroke="none">
<path d="M7230 9039 c-177 -19 -443 -65 -505 -88 -11 -5 -49 -15 -85 -24 -139
-35 -156 -40 -175 -48 -11 -4 -49 -17 -85 -29 -36 -12 -74 -25 -85 -30 -49
-20 -102 -42 -120 -50 -49 -21 -260 -124 -265 -129 -13 -15 -52 -31 -62 -25
-7 4 -8 3 -4 -4 4 -6 -6 -18 -23 -26 -16 -9 -35 -21 -43 -28 -7 -7 -40 -35
-73 -63 -76 -63 -145 -131 -145 -144 0 -5 -3 -11 -7 -13 -14 -6 -63 -76 -63
-90 0 -8 -4 -18 -8 -23 -5 -6 -14 -33 -21 -62 -16 -68 -4 -93 44 -93 30 0 35
4 40 28 17 82 41 127 105 198 68 75 229 192 313 228 18 7 68 30 112 51 138 63
145 66 157 59 6 -4 8 -3 5 3 -4 6 12 16 36 23 46 13 74 24 111 41 14 7 32 9
41 5 9 -3 14 -2 11 2 -3 5 30 19 72 31 42 12 85 27 94 32 10 5 33 9 52 9 19 0
37 4 40 8 3 5 31 14 63 21 32 7 76 17 98 22 22 5 74 14 115 20 41 5 103 14
138 18 34 5 72 7 84 3 14 -3 19 -1 14 6 -11 18 480 16 614 -3 109 -15 227 -37
295 -56 22 -6 57 -13 77 -16 24 -3 35 -9 32 -18 -4 -9 2 -11 20 -8 14 3 41 -2
60 -11 19 -9 38 -16 42 -16 27 0 294 -120 294 -132 0 -4 7 -8 16 -8 9 0 12 -5
8 -12 -5 -7 -3 -8 6 -3 8 5 18 1 27 -10 7 -11 13 -16 13 -12 0 10 108 -52 170
-97 66 -48 183 -166 226 -227 42 -61 77 -135 72 -151 -3 -7 1 -19 9 -26 7 -7
13 -26 13 -40 0 -15 4 -43 10 -62 17 -58 -4 -271 -35 -360 -31 -89 -50 -132
-76 -180 -11 -19 -28 -51 -37 -70 -9 -19 -20 -36 -24 -38 -5 -2 -8 -8 -8 -13
0 -5 -12 -28 -27 -52 -26 -40 -192 -267 -203 -277 -3 -3 -14 -18 -23 -33 -20
-31 -70 -86 -214 -235 -51 -53 -93 -99 -93 -104 0 -4 -4 -8 -9 -8 -5 0 -55
-46 -112 -102 -143 -141 -362 -342 -428 -393 -14 -10 -28 -22 -31 -26 -4 -5
-35 -31 -142 -117 -12 -9 -28 -24 -38 -33 -9 -8 -54 -46 -101 -83 -46 -38
-102 -83 -124 -101 -22 -18 -87 -68 -145 -111 -58 -43 -107 -81 -110 -84 -10
-11 -163 -125 -224 -167 -33 -23 -66 -46 -72 -52 -39 -33 -190 -145 -254 -186
-41 -27 -84 -57 -94 -67 -41 -38 -55 -19 -37 51 5 20 14 61 20 91 6 30 18 91
27 135 9 44 18 91 20 105 4 28 31 168 48 250 3 14 10 57 16 95 7 39 18 104 25
145 8 41 19 113 25 160 7 47 16 94 21 105 4 11 10 43 13 70 5 50 8 75 26 195
5 36 14 99 20 140 30 208 71 427 95 510 7 25 16 58 19 73 4 15 10 26 14 23 4
-2 8 10 8 27 1 18 6 49 13 70 17 57 28 96 46 162 9 33 20 69 25 80 8 19 35
119 66 250 8 33 19 68 25 77 5 10 9 26 9 35 0 23 30 161 40 188 10 24 20 67
27 118 3 20 9 40 14 43 5 3 9 23 9 44 0 21 5 42 10 45 6 4 8 10 6 14 -3 4 2
36 11 72 19 82 33 173 40 277 4 70 2 86 -13 103 -44 49 -82 7 -85 -96 -1 -38
-5 -88 -10 -110 -17 -91 -33 -163 -45 -210 -22 -85 -26 -97 -56 -200 -17 -55
-32 -109 -35 -120 -2 -11 -8 -29 -13 -40 -4 -11 -13 -38 -19 -60 -6 -22 -23
-78 -38 -125 -15 -47 -28 -89 -29 -95 -5 -27 -28 -109 -54 -190 -52 -165 -90
-290 -99 -325 -5 -19 -16 -60 -24 -90 -8 -30 -20 -80 -27 -110 -6 -30 -16 -71
-20 -90 -8 -33 -19 -101 -57 -355 -16 -109 -28 -181 -43 -265 -6 -30 -13 -79
-16 -107 -4 -29 -10 -53 -14 -53 -4 0 -8 -23 -9 -50 0 -28 -5 -59 -11 -70 -6
-11 -10 -32 -9 -47 0 -15 -4 -55 -11 -88 -14 -75 -28 -158 -36 -210 -3 -22 -9
-49 -14 -60 -5 -11 -11 -38 -14 -60 -3 -22 -9 -62 -15 -90 -16 -82 -42 -216
-53 -275 -5 -30 -14 -77 -19 -105 -5 -27 -12 -69 -15 -92 -4 -24 -11 -43 -16
-43 -5 0 -7 -4 -4 -9 16 -25 -8 -74 -48 -99 -23 -14 -84 -54 -136 -88 -52 -34
-107 -68 -122 -75 -16 -7 -28 -16 -28 -21 0 -4 -5 -8 -11 -8 -6 0 -29 -13 -53
-29 -60 -42 -313 -171 -334 -171 -10 0 -22 -4 -28 -8 -10 -10 -74 -29 -122
-36 -29 -5 -34 -2 -50 32 -13 28 -24 38 -45 40 -46 5 -67 -22 -67 -86 0 -62
22 -102 72 -126 34 -18 167 -22 196 -7 9 5 37 15 62 22 25 7 56 19 70 26 14 7
30 13 36 13 16 0 197 93 329 170 22 12 60 34 85 48 25 14 64 38 87 53 23 16
45 29 49 29 7 0 2 -53 -16 -190 -21 -159 -10 -141 -113 -174 -51 -16 -96 -33
-102 -36 -5 -4 -21 -10 -35 -12 -14 -3 -110 -36 -215 -73 -104 -36 -208 -71
-230 -77 -22 -6 -44 -15 -49 -19 -6 -5 -20 -9 -33 -9 -13 0 -23 -4 -23 -10 0
-5 -10 -10 -23 -10 -13 0 -27 -4 -33 -8 -5 -5 -47 -21 -94 -36 -80 -26 -98
-33 -152 -55 -13 -5 -59 -22 -103 -36 -44 -15 -93 -33 -110 -40 -16 -7 -41
-16 -55 -20 -14 -4 -29 -11 -35 -14 -5 -4 -64 -24 -130 -45 -66 -21 -137 -47
-158 -57 -22 -11 -45 -19 -53 -19 -8 0 -22 -4 -32 -9 -31 -17 -208 -81 -223
-81 -8 0 -19 -4 -25 -9 -5 -4 -76 -34 -159 -66 -82 -31 -170 -66 -194 -77 -25
-11 -60 -22 -78 -25 -18 -3 -33 -10 -33 -14 0 -5 -9 -9 -19 -9 -11 0 -23 -4
-26 -10 -3 -5 -15 -10 -26 -10 -10 0 -27 -4 -37 -10 -9 -5 -60 -25 -112 -45
-52 -20 -105 -41 -118 -46 -13 -5 -32 -9 -42 -9 -11 0 -20 -4 -20 -8 0 -4 -17
-14 -37 -21 -116 -41 -233 -85 -270 -102 -24 -10 -49 -19 -57 -19 -8 0 -17 -4
-20 -9 -3 -5 -18 -12 -33 -16 -32 -7 -220 -81 -306 -119 -31 -14 -60 -26 -65
-27 -11 -2 -32 -10 -92 -34 -30 -12 -89 -34 -130 -49 -41 -15 -88 -34 -105
-42 -63 -29 -173 -72 -250 -99 -44 -15 -111 -41 -150 -57 -38 -16 -122 -49
-185 -74 -63 -25 -174 -70 -247 -100 -72 -30 -135 -54 -139 -54 -4 0 -43 -15
-88 -34 -45 -18 -126 -50 -181 -70 -97 -37 -278 -110 -360 -146 -22 -9 -58
-23 -80 -30 -22 -7 -67 -23 -100 -36 -33 -12 -72 -25 -87 -28 -33 -7 -44 -39
-29 -79 9 -24 15 -27 59 -27 26 0 52 4 57 9 6 5 30 16 55 24 25 8 74 26 110
40 36 14 74 28 85 32 50 18 543 187 570 195 49 15 196 67 255 90 30 12 75 29
100 38 77 26 83 29 160 60 211 88 510 201 552 209 16 3 28 9 28 13 0 5 18 11
40 15 22 4 42 11 46 16 3 5 12 9 19 9 8 0 44 14 80 30 36 17 71 30 78 30 7 0
17 4 22 9 6 4 46 20 90 35 44 15 89 31 100 35 11 5 54 21 95 36 41 14 84 31
94 37 10 5 42 18 70 28 28 10 82 30 119 44 37 14 77 26 87 26 11 0 20 4 20 10
0 5 12 13 28 16 15 4 38 13 52 20 14 7 81 34 150 59 69 26 134 51 145 55 11 5
56 21 100 36 44 14 84 30 89 35 6 5 20 9 33 9 13 0 23 5 23 10 0 6 10 10 22
10 12 0 40 8 62 19 23 10 77 31 121 46 44 15 84 32 89 36 6 5 18 9 27 9 9 0
46 13 81 28 69 32 116 46 136 43 6 -1 12 3 12 8 0 6 17 13 37 17 21 4 58 18
84 31 26 12 54 23 62 23 9 0 18 4 21 9 4 5 25 12 48 16 23 4 49 11 58 15 8 4
35 17 58 29 24 11 51 21 61 21 9 0 32 8 51 19 19 10 51 22 70 26 19 4 40 11
45 15 6 5 44 19 85 33 41 14 120 42 175 62 55 21 110 39 123 42 12 3 22 9 22
14 0 5 7 9 15 9 19 0 173 47 197 60 10 6 25 10 33 10 8 0 24 4 35 10 11 6 29
15 40 20 11 5 29 10 39 10 11 0 22 4 25 9 3 4 20 11 38 15 18 3 56 15 83 25
73 27 179 61 189 61 5 0 5 -19 1 -42 -4 -24 -8 -68 -10 -99 -1 -32 -6 -83 -10
-115 -5 -33 -9 -81 -10 -109 -1 -27 -8 -99 -14 -160 -7 -60 -16 -150 -22 -200
-19 -172 -46 -477 -53 -600 -9 -144 -19 -256 -26 -305 -4 -30 -9 -110 -9 -177
-1 -67 -4 -133 -7 -145 -3 -13 -10 -189 -14 -393 -5 -203 -12 -428 -15 -500
-2 -71 -7 -262 -9 -423 -3 -248 -2 -295 11 -307 20 -20 39 -19 61 5 27 29 40
104 47 255 3 72 8 164 10 205 14 217 28 458 36 650 17 414 41 836 58 1055 30
377 35 429 56 605 7 62 24 235 35 355 5 55 14 150 20 210 6 61 12 137 15 170
10 132 9 129 78 148 34 10 69 18 77 19 8 1 17 4 20 7 3 4 52 22 110 41 58 18
110 37 115 40 6 4 30 12 55 20 25 7 90 27 145 45 200 65 231 74 268 80 20 4
37 3 37 -2 0 -10 4 -10 215 -19 77 -3 144 -10 149 -15 6 -5 17 -9 26 -9 21 0
66 -47 79 -83 26 -67 6 -150 -48 -208 -34 -34 -43 -39 -67 -33 -16 4 -38 18
-49 32 -61 77 -61 77 -113 77 -42 0 -95 -17 -112 -35 -3 -3 -20 -17 -39 -29
-32 -23 -33 -23 -22 -3 14 26 15 119 1 127 -5 3 -10 14 -10 24 0 10 -12 30
-26 45 -23 22 -35 26 -86 26 -62 0 -169 -40 -197 -73 -7 -9 -19 -17 -27 -17
-7 0 -16 -9 -19 -20 -3 -11 -10 -20 -14 -20 -9 0 -31 -45 -31 -65 0 -8 12 -25
26 -39 l27 -24 35 41 c19 23 42 46 51 51 9 5 18 12 21 15 13 16 85 41 115 41
34 0 35 -1 35 -42 0 -46 -19 -108 -33 -108 -5 0 -7 -7 -4 -15 4 -8 -12 -49
-33 -91 -44 -85 -50 -130 -21 -163 19 -21 21 -22 50 -7 16 9 45 37 63 64 45
66 167 185 206 201 31 13 33 12 54 -15 12 -16 37 -44 56 -61 31 -31 38 -33
103 -33 68 0 69 1 111 43 57 57 80 92 100 152 26 78 23 151 -9 215 -51 102
-101 141 -211 161 -70 13 -71 13 -41 26 16 7 46 15 67 19 20 4 42 10 47 14 6
3 30 12 55 19 25 7 70 20 100 28 30 9 80 23 110 33 90 28 266 80 340 100 25 6
53 16 62 21 10 5 29 9 42 9 14 0 28 4 31 10 3 6 17 10 30 10 21 0 24 -6 34
-82 7 -46 11 -162 9 -258 -3 -158 -1 -177 15 -193 32 -32 69 -19 96 36 23 44
27 47 50 40 41 -13 163 -9 201 6 51 21 129 89 162 140 91 143 -50 281 -221
217 -41 -16 -73 -39 -125 -91 -38 -38 -66 -62 -63 -53 5 14 -14 211 -25 258
-2 8 22 20 62 32 36 11 73 24 82 29 10 5 36 9 58 9 22 0 48 4 58 9 23 12 79
28 124 35 27 5 45 17 63 41 25 32 26 35 10 58 -9 14 -26 28 -38 31 -25 6 -91
-7 -110 -22 -12 -9 -88 -28 -212 -52 -33 -6 -79 -16 -103 -22 -38 -10 -44 -9
-57 8 -8 10 -15 24 -15 29 0 12 -47 35 -69 35 -22 -1 -51 -24 -51 -41 0 -8 7
-25 16 -38 20 -28 11 -36 -51 -45 -22 -4 -70 -15 -106 -26 -35 -11 -76 -20
-91 -20 -16 0 -28 -4 -28 -9 0 -5 -17 -11 -37 -14 -21 -3 -81 -17 -133 -32
-52 -15 -107 -30 -123 -32 -15 -3 -30 -9 -33 -14 -3 -5 -15 -9 -26 -9 -21 0
-71 -14 -113 -31 -11 -4 -49 -15 -85 -24 -36 -9 -74 -20 -85 -25 -11 -4 -40
-13 -65 -20 -25 -7 -56 -16 -70 -20 -14 -4 -45 -13 -70 -20 -25 -7 -62 -19
-83 -26 -20 -8 -61 -14 -90 -15 -35 -1 -44 -3 -29 -8 20 -5 17 -8 -25 -20 -26
-7 -111 -34 -188 -58 -77 -25 -156 -50 -175 -55 -19 -6 -57 -19 -85 -29 -135
-49 -215 -73 -221 -67 -7 8 11 148 27 209 5 20 9 52 9 72 0 20 5 39 10 42 6 4
8 10 5 15 -3 5 -3 21 1 36 5 19 39 48 136 112 71 48 137 92 146 97 10 6 70 49
134 98 64 48 122 87 128 87 5 0 10 5 10 10 0 6 5 10 12 10 7 0 26 13 43 29 50
47 135 102 147 95 6 -4 8 -3 5 3 -4 6 48 53 114 104 67 52 140 109 163 127 58
47 67 53 111 86 22 16 69 55 105 86 36 30 83 69 105 85 22 16 45 34 51 40 28
27 148 130 172 149 15 11 36 30 48 41 11 11 61 56 110 99 82 74 419 408 524
522 160 171 340 405 415 539 32 56 107 206 137 275 11 25 24 53 29 62 5 10 9
26 9 36 0 10 4 22 8 27 16 18 37 159 37 245 -1 130 -36 350 -57 350 -5 0 -8 7
-8 15 0 15 -40 91 -71 137 -11 14 -19 30 -19 34 0 10 -210 215 -239 234 -14 8
-33 23 -43 33 -10 9 -20 17 -23 17 -3 0 -36 20 -75 45 -39 25 -77 45 -85 45
-8 0 -15 3 -15 8 0 7 -21 18 -95 47 -22 9 -58 24 -80 35 -87 41 -293 112 -405
140 -19 4 -53 13 -75 19 -40 10 -154 31 -276 50 -77 13 -465 12 -589 0z m1734
-4395 c21 -20 21 -21 -10 -61 -43 -57 -95 -83 -164 -83 -33 0 -60 3 -60 6 0
14 64 96 93 118 17 13 50 26 72 29 22 2 43 4 47 5 4 1 14 -5 22 -14z"/>
<path d="M4618 8063 c7 -3 16 -2 19 1 4 3 -2 6 -13 5 -11 0 -14 -3 -6 -6z"/>
<path d="M4476 8033 c-11 -3 -37 -16 -58 -29 -21 -13 -40 -24 -43 -24 -11 0
-168 -151 -196 -188 -8 -12 -33 -41 -55 -64 -22 -24 -51 -59 -64 -78 -13 -19
-60 -80 -103 -135 -113 -145 -129 -165 -162 -204 -59 -69 -182 -238 -279 -383
-54 -81 -101 -146 -105 -144 -4 3 -8 -5 -8 -16 -1 -12 -6 -24 -11 -27 -14 -9
-282 -415 -282 -427 0 -6 -60 -96 -69 -104 -4 -3 -15 -24 -26 -47 -11 -24 -23
-43 -27 -43 -5 0 -8 -4 -8 -10 0 -5 -20 -41 -45 -80 -25 -39 -45 -73 -45 -76
0 -2 -5 -10 -10 -17 -9 -11 -25 -35 -84 -130 -10 -16 -20 -26 -23 -23 -6 6
-20 70 -33 156 -5 30 -14 78 -20 105 -6 28 -14 77 -19 110 -34 225 -34 229
-51 360 -10 75 -16 126 -41 330 -5 44 -14 130 -19 190 -14 147 -62 481 -89
625 -35 182 -52 223 -117 287 -34 33 -101 51 -147 40 -12 -3 -35 -9 -50 -13
-25 -6 -62 -24 -217 -110 -19 -10 -39 -24 -45 -30 -5 -6 -28 -24 -50 -40 -22
-16 -47 -36 -55 -44 -8 -8 -31 -27 -51 -42 -20 -15 -53 -43 -74 -63 -25 -25
-43 -35 -57 -32 -14 4 -18 1 -13 -12 3 -12 -9 -29 -42 -57 -54 -45 -160 -152
-204 -204 -16 -19 -43 -51 -59 -70 -17 -19 -53 -64 -82 -100 -29 -36 -54 -67
-57 -70 -20 -17 -143 -219 -175 -285 -21 -44 -43 -88 -47 -97 -5 -10 -9 -55
-9 -100 0 -65 4 -90 20 -116 24 -39 63 -57 91 -42 23 13 26 62 5 79 -39 32
-26 125 31 236 20 39 39 72 42 75 3 3 11 12 16 21 28 45 69 105 74 109 4 3 42
48 86 100 43 52 84 100 90 106 5 6 39 44 75 84 103 115 218 230 229 230 6 0
11 4 11 9 0 12 215 192 300 252 119 84 231 130 280 114 49 -16 80 -157 96
-445 2 -41 11 -145 19 -230 8 -85 17 -182 20 -215 3 -33 10 -98 15 -145 5 -47
14 -134 19 -195 10 -112 18 -173 46 -370 20 -138 32 -216 45 -280 5 -27 12
-66 15 -85 4 -19 17 -80 30 -135 12 -55 28 -125 35 -156 l13 -56 -50 -79 c-41
-64 -175 -281 -214 -344 -5 -8 -24 -41 -43 -72 -18 -32 -36 -55 -40 -51 -3 3
-6 -2 -6 -13 0 -11 -10 -35 -23 -54 -13 -19 -43 -69 -66 -110 -23 -41 -62
-109 -87 -150 -24 -41 -51 -90 -60 -107 -9 -18 -20 -33 -25 -33 -5 0 -9 -9 -9
-20 0 -11 -3 -20 -7 -20 -5 0 -13 -10 -19 -23 -18 -38 -87 -162 -93 -167 -3
-3 -34 -60 -67 -127 -34 -67 -64 -120 -68 -116 -3 3 -6 0 -6 -9 0 -18 -21 -66
-62 -140 -7 -13 -15 -25 -19 -28 -3 -3 -18 -30 -34 -60 -16 -30 -43 -82 -61
-115 -17 -33 -79 -154 -138 -270 -58 -115 -111 -215 -116 -222 -6 -7 -10 -19
-10 -28 0 -21 -33 -95 -42 -95 -5 0 -8 -9 -8 -20 0 -11 -4 -20 -10 -20 -5 0
-10 -8 -10 -18 0 -11 -18 -56 -40 -102 -35 -70 -44 -81 -61 -77 -37 10 -59
-25 -59 -93 0 -53 3 -64 26 -85 58 -54 72 -37 249 300 23 44 57 107 75 140 18
33 53 98 77 145 25 47 74 135 109 195 81 137 82 139 119 200 30 49 39 65 126
232 26 48 61 113 78 143 17 30 36 66 43 80 23 48 50 80 60 74 6 -4 8 1 3 15
-4 14 3 34 24 65 17 25 31 49 31 55 0 6 4 11 8 11 4 0 13 12 19 28 15 34 83
155 91 162 4 3 22 34 41 70 19 36 40 72 47 81 8 8 14 21 14 27 0 7 5 12 10 12
6 0 10 6 10 13 0 7 17 42 38 78 111 187 145 242 201 329 34 52 71 114 83 138
24 45 35 52 44 25 3 -10 9 -27 14 -38 4 -11 16 -42 25 -70 10 -27 27 -70 37
-95 11 -25 25 -56 30 -70 18 -44 40 -94 50 -114 29 -54 61 -109 96 -162 22
-32 53 -86 71 -119 47 -90 65 -121 97 -162 16 -21 28 -44 26 -50 -2 -7 4 -13
11 -13 8 0 26 -15 40 -33 99 -124 200 -192 377 -254 62 -22 336 -27 365 -7 11
8 25 14 33 14 18 0 141 59 171 82 13 10 32 18 42 18 9 0 19 4 21 8 2 4 44 42
93 84 94 79 157 146 254 270 98 125 301 443 301 473 0 7 4 15 8 17 13 5 156
307 168 353 3 14 10 25 15 25 5 0 9 13 9 29 0 16 3 31 8 33 4 2 20 44 37 93
16 50 32 95 36 100 4 6 14 30 22 55 28 80 65 178 82 217 27 61 33 76 45 116 6
20 16 35 21 32 5 -4 6 1 3 9 -3 8 4 41 15 74 30 84 28 126 -8 151 -65 47 -84
25 -146 -164 -20 -60 -40 -119 -44 -130 -5 -11 -18 -41 -30 -67 -12 -26 -21
-52 -21 -58 0 -5 -5 -10 -11 -10 -5 0 -7 -4 -4 -10 3 -5 -1 -25 -11 -42 -29
-57 -34 -67 -34 -79 0 -5 -11 -35 -25 -65 -14 -30 -25 -57 -25 -61 0 -9 -46
-127 -71 -180 -10 -24 -19 -45 -19 -48 0 -2 -11 -28 -24 -57 -13 -29 -36 -80
-51 -113 -47 -108 -178 -335 -192 -335 -8 0 -11 -5 -8 -10 9 -15 -66 -129
-193 -294 -34 -44 -155 -170 -192 -200 -98 -79 -196 -138 -284 -171 -52 -19
-85 -25 -151 -25 -221 0 -388 104 -541 336 -55 84 -154 253 -154 264 0 4 -7
13 -15 20 -14 12 -46 74 -97 190 -11 25 -28 62 -39 83 -10 22 -19 47 -19 56 0
9 -4 21 -8 27 -5 5 -26 63 -47 129 -21 66 -42 129 -47 141 -8 17 -2 34 30 85
22 35 69 111 104 168 34 57 73 120 86 140 12 20 32 53 45 75 12 21 27 47 33
57 6 11 18 27 27 37 10 10 17 23 17 28 0 5 16 33 35 61 19 29 35 55 35 58 0 3
25 42 55 86 30 44 55 82 55 84 0 6 234 369 249 387 6 7 57 81 113 163 113 169
242 347 276 382 12 13 22 27 22 30 0 3 16 25 35 49 19 23 35 45 35 49 0 8 79
119 112 157 46 54 58 68 58 74 0 8 128 160 180 214 14 14 38 32 53 40 34 17
42 11 89 -80 53 -102 60 -110 91 -110 34 0 58 41 39 68 -11 16 -40 74 -68 137
-30 69 -99 105 -168 88z"/>
<path d="M3815 7370 c3 -5 8 -10 11 -10 2 0 4 5 4 10 0 6 -5 10 -11 10 -5 0
-7 -4 -4 -10z"/>
<path d="M8047 4684 c-65 -66 -91 -144 -90 -272 1 -69 6 -94 28 -138 31 -63
65 -90 136 -108 64 -17 119 -4 192 45 85 56 149 158 177 280 16 70 4 99 -40
99 -34 0 -45 -16 -61 -92 -16 -77 -102 -198 -141 -198 -10 0 -18 -4 -18 -9 0
-10 -84 -21 -111 -14 -26 7 -24 22 15 106 44 95 46 101 60 178 20 111 -2 159
-72 159 -31 0 -46 -7 -75 -36z m30 -186 c-3 -8 -6 -5 -6 6 -1 11 2 17 5 13 3
-3 4 -12 1 -19z"/>
</g>
</svg>
